<?xml version="1.0" encoding="UTF-8"?>
<svg classes="gsndiagram" viewBox="0 0 1071 484" xmlns="http://www.w3.org/2000/svg">
<symbol id="module_icon">
<rect fill="lightgrey" height="5" stroke="black" stroke-width="1" width="10" x="0" y="0"/>
<rect fill="lightgrey" height="10" stroke="black" stroke-width="1" width="20" x="0" y="5"/>
</symbol>
<marker id="composite_arrow" markerHeight="9" markerUnits="userSpaceOnUse" markerWidth="10" orient="auto-start-reverse" refX="0" refY="4.5">
<polyline fill="none" points="0 0, 6 4.5, 0 9" stroke="black" stroke-width="1"/>
<polyline fill="none" points="4 0, 10 4.5, 4 9" stroke="black" stroke-width="1"/>
<polyline fill="none" points="0 4.5, 10 4.5" stroke="black" stroke-width="1"/>
</marker>
<marker id="supportedby_arrow" markerHeight="9" markerUnits="userSpaceOnUse" markerWidth="10" orient="auto-start-reverse" refX="0" refY="4.5">
<polyline fill="black" points="0 0, 10 4.5, 0 9"/>
</marker>
<marker id="incontextof_arrow" markerHeight="9" markerUnits="userSpaceOnUse" markerWidth="10" orient="auto-start-reverse" refX="0" refY="4.5">
<polyline fill="none" points="0 0, 10 4.5, 0 9, 0 0" stroke="black" stroke-width="1"/>
</marker>
<a href="./a330-sub1.gsn.svg#node_G5">
<g class="gsn_module_Sub1 gsnelem gsnawaygoal" id="node_G5">
<title>
G5
</title>
<path class="border" d="M385,72 V20 H591 V72" fill="transparent" stroke="black" stroke-width="1"/>
<text font-family="DejaVuSans" font-size="12" font-weight="bold" x="392" y="39">
G5
</text>
<text font-family="DejaVuSans" font-size="12" x="392" y="58">
E2E Response Time &lt;= Required
</text>
<a href="./a330-sub1.gsn.svg#node_G5">
<path class="border" d="M385,72 h207 v28 h-207 z" fill="transparent" stroke="black" stroke-width="1"/>
<text font-family="DejaVuSans" font-size="12" font-weight="bold" x="419" y="93">
Sub1
</text>
</a>
<use href="#module_icon" x="392" y="79"/>
</g>
</a>
<g class="gsn_module_Sub2 gsnelem gsngoal" id="node_G6">
<title>
G6
</title>
<path class="border" d="M407,140 L569,140 L569,186 L407,186 z" fill="transparent" stroke="black" stroke-width="1"/>
<text font-family="DejaVuSans" font-size="12" font-weight="bold" x="414" y="159">
G6
</text>
<text font-family="DejaVuSans" font-size="12" x="414" y="178">
All Tasks are Schedulable
</text>
</g>
<g class="gsn_module_Sub2 gsnelem gsnstgy" id="node_S4">
<title>
S4
</title>
<path class="border" d="M356,226 L634,226 L620,272 L342,272 z" fill="transparent" stroke="black" stroke-width="1"/>
<text font-family="DejaVuSans" font-size="12" font-weight="bold" x="364" y="245">
S4
</text>
<text font-family="DejaVuSans" font-size="12" x="364" y="264">
Select Schedulability For Given Thread Data
</text>
</g>
<a href="./a330-sub3.gsn.svg#node_G7">
<g class="gsn_module_Sub3 gsnelem gsnawaygoal" id="node_G7">
<title>
G7
</title>
<path class="border" d="M20,364 V312 H316 V364" fill="transparent" stroke="black" stroke-width="1"/>
<text font-family="DejaVuSans" font-size="12" font-weight="bold" x="27" y="331">
G7
</text>
<text font-family="DejaVuSans" font-size="12" x="27" y="350">
Rate-Monotonic Harmonic Bound Schedulability
</text>
<a href="./a330-sub3.gsn.svg#node_G7">
<path class="border" d="M20,364 h297 v28 h-297 z" fill="transparent" stroke="black" stroke-width="1"/>
<text font-family="DejaVuSans" font-size="12" font-weight="bold" x="54" y="385">
Sub3
</text>
</a>
<use href="#module_icon" x="27" y="371"/>
</g>
</a>
<a href="./a330-sub4.gsn.svg#node_G8">
<g class="gsn_module_Sub4 gsnelem gsnawaygoal" id="node_G8">
<title>
G8
</title>
<path class="border" d="M356,364 V312 H638 V364" fill="transparent" stroke="black" stroke-width="1"/>
<text font-family="DejaVuSans" font-size="12" font-weight="bold" x="363" y="331">
G8
</text>
<text font-family="DejaVuSans" font-size="12" x="363" y="350">
Rate-Monotonic Non-Harmonic Schedulability
</text>
<a href="./a330-sub4.gsn.svg#node_G8">
<path class="border" d="M356,364 h283 v28 h-283 z" fill="transparent" stroke="black" stroke-width="1"/>
<text font-family="DejaVuSans" font-size="12" font-weight="bold" x="390" y="385">
Sub4
</text>
</a>
<use href="#module_icon" x="363" y="371"/>
</g>
</a>
<a href="./a330-sub5.gsn.svg#node_G9">
<g class="gsn_module_Sub5 gsnelem gsnawaygoal" id="node_G9">
<title>
G9
</title>
<path class="border" d="M678,364 V312 H940 V364" fill="transparent" stroke="black" stroke-width="1"/>
<text font-family="DejaVuSans" font-size="12" font-weight="bold" x="685" y="331">
G9
</text>
<text font-family="DejaVuSans" font-size="12" x="685" y="350">
Worst-Case Response Time Schedulability
</text>
<a href="./a330-sub5.gsn.svg#node_G9">
<path class="border" d="M678,364 h262 v28 h-262 z" fill="transparent" stroke="black" stroke-width="1"/>
<text font-family="DejaVuSans" font-size="12" font-weight="bold" x="712" y="385">
Sub5
</text>
</a>
<use href="#module_icon" x="685" y="371"/>
</g>
</a>
<path class="gsnedge gsninspby" d="M488,100 C488,130,488,110,488,130" fill="none" marker-end="url(#supportedby_arrow)" stroke="black" stroke-width="1"/>
<path class="gsnedge gsninspby" d="M488,186 C488,216,488,196,488,216" fill="none" marker-end="url(#supportedby_arrow)" stroke="black" stroke-width="1"/>
<path class="gsnedge gsninspby" d="M488,272 C488,302,168,282,168,302" fill="none" marker-end="url(#supportedby_arrow)" stroke="black" stroke-width="1"/>
<path class="gsnedge gsninspby" d="M488,272 C488,302,497,282,497,302" fill="none" marker-end="url(#supportedby_arrow)" stroke="black" stroke-width="1"/>
<path class="gsnedge gsninspby" d="M488,272 C488,302,809,282,809,302" fill="none" marker-end="url(#supportedby_arrow)" stroke="black" stroke-width="1"/>
<g class="gsnmodule" id="node_gsn_module">
<title>
Module Information
</title>
<text font-family="DejaVuSans" font-size="12" x="739" y="450">
Module: Sub2
</text>
<text font-family="DejaVuSans" font-size="12" x="739" y="464">
Generated on: 2024-02-20 13:54:28.597959710 UTC
</text>
</g>
</svg>