<?xml version="1.0" encoding="UTF-8"?>
<svg classes="gsndiagram" viewBox="0 0 1169 645" xmlns="http://www.w3.org/2000/svg">
<symbol id="module_icon">
<rect fill="lightgrey" height="5" stroke="black" stroke-width="1" width="10" x="0" y="0"/>
<rect fill="lightgrey" height="10" stroke="black" stroke-width="1" width="20" x="0" y="5"/>
</symbol>
<marker id="composite_arrow" markerHeight="9" markerUnits="userSpaceOnUse" markerWidth="10" orient="auto-start-reverse" refX="0" refY="4.5">
<polyline fill="none" points="0 0, 6 4.5, 0 9" stroke="black" stroke-width="1"/>
<polyline fill="none" points="4 0, 10 4.5, 4 9" stroke="black" stroke-width="1"/>
<polyline fill="none" points="0 4.5, 10 4.5" stroke="black" stroke-width="1"/>
</marker>
<marker id="supportedby_arrow" markerHeight="9" markerUnits="userSpaceOnUse" markerWidth="10" orient="auto-start-reverse" refX="0" refY="4.5">
<polyline fill="black" points="0 0, 10 4.5, 0 9"/>
</marker>
<marker id="incontextof_arrow" markerHeight="9" markerUnits="userSpaceOnUse" markerWidth="10" orient="auto-start-reverse" refX="0" refY="4.5">
<polyline fill="none" points="0 0, 10 4.5, 0 9, 0 0" stroke="black" stroke-width="1"/>
</marker>
<a href="./a330-sub2.gsn.svg#node_S4">
<g class="gsn_module_Sub2 gsnelem gsnstgy" id="node_S4">
<title>
S4
</title>
<path class="border" d="M357,20 L635,20 L621,66 L343,66 z" fill="transparent" stroke="black" stroke-width="1"/>
<text font-family="DejaVuSans" font-size="12" font-weight="bold" x="365" y="39">
S4
</text>
<text font-family="DejaVuSans" font-size="12" x="365" y="58">
Select Schedulability For Given Thread Data
</text>
</g>
</a>
<g class="gsn_module_Sub4 gsnelem gsnasmp" id="node_A8">
<title>
A8
</title>
<path class="border" d="M20,193 a144,33,0,1,0,289,0 a144,33,0,1,0,-289,0 z" fill="none" stroke="black" stroke-width="1"/>
<text font-family="DejaVuSans" font-size="12" font-weight="bold" x="68" y="184">
A8
</text>
<text font-family="DejaVuSans" font-size="12" x="68" y="203">
Threads bound to one processor
</text>
<text font-family="DejaVuSans" font-size="12" font-weight="bold" x="303" y="221">
A
</text>
</g>
<g class="gsn_module_Sub4 gsnelem gsngoal" id="node_G8">
<title>
G8
</title>
<path class="border" d="M348,170 L630,170 L630,216 L348,216 z" fill="transparent" stroke="black" stroke-width="1"/>
<text font-family="DejaVuSans" font-size="12" font-weight="bold" x="355" y="189">
G8
</text>
<text font-family="DejaVuSans" font-size="12" x="355" y="208">
Rate-Monotonic Non-Harmonic Schedulability
</text>
</g>
<g class="gsn_module_Sub4 gsnelem gsnasmp" id="node_A7">
<title>
A7
</title>
<path class="border" d="M670,139 a166,33,0,1,0,333,0 a166,33,0,1,0,-333,0 z" fill="none" stroke="black" stroke-width="1"/>
<text font-family="DejaVuSans" font-size="12" font-weight="bold" x="725" y="130">
A7
</text>
<text font-family="DejaVuSans" font-size="12" x="725" y="149">
Shorter Period implies Higher Priority
</text>
<text font-family="DejaVuSans" font-size="12" font-weight="bold" x="997" y="167">
A
</text>
</g>
<g class="gsn_module_Sub4 gsnelem gsnasmp" id="node_A9">
<title>
A9
</title>
<path class="border" d="M712,246 a124,33,0,1,0,249,0 a124,33,0,1,0,-249,0 z" fill="none" stroke="black" stroke-width="1"/>
<text font-family="DejaVuSans" font-size="12" font-weight="bold" x="755" y="237">
A9
</text>
<text font-family="DejaVuSans" font-size="12" x="755" y="256">
Thread periods = deadlines
</text>
<text font-family="DejaVuSans" font-size="12" font-weight="bold" x="955" y="274">
A
</text>
</g>
<a href="eclipse+command://org.osate.contract.uriHandler.GSNURIMarker?org.osate.contract.uriHandler.GSNURIMarker.analysisName=allProcessorNonHarmonicBoundSchedulable">
<g class="gsn_notetype gsn_module_Sub4 gsnelem gsnsltn" id="node_Sn6">
<title>
Sn6
</title>
<path class="border" d="M371,438 a118,118,0,1,0,236,0 a118,118,0,1,0,-236,0 z" fill="none" stroke="black" stroke-width="1"/>
<text font-family="DejaVuSans" font-size="12" font-weight="bold" x="386" y="429">
Sn6
</text>
<text font-family="DejaVuSans" font-size="12" x="386" y="448">
Sum of threads utilization &lt;= 0.69
</text>
</g>
</a>
<path class="gsnedge gsninctxt" d="M630,193 C660,193,640,139,660,139" fill="none" marker-end="url(#incontextof_arrow)" stroke="black" stroke-width="1"/>
<path class="gsnedge gsninctxt" d="M348,193 C318,193,338,193,318,193" fill="none" marker-end="url(#incontextof_arrow)" stroke="black" stroke-width="1"/>
<path class="gsnedge gsninctxt" d="M630,193 C660,193,682,246,702,246" fill="none" marker-end="url(#incontextof_arrow)" stroke="black" stroke-width="1"/>
<path class="gsnedge gsninspby" d="M489,216 C489,246,489,290,489,310" fill="none" marker-end="url(#supportedby_arrow)" stroke="black" stroke-width="1"/>
<path class="gsnedge gsninspby" d="M489,66 C489,96,489,140,489,160" fill="none" marker-end="url(#supportedby_arrow)" stroke="black" stroke-width="1"/>
<g class="gsnmodule" id="node_gsn_module">
<title>
Module Information
</title>
<text font-family="DejaVuSans" font-size="12" x="837" y="611">
Module: Sub4
</text>
<text font-family="DejaVuSans" font-size="12" x="837" y="625">
Generated on: 2024-02-20 13:54:28.605690275 UTC
</text>
</g>
</svg>